<svg id="SvgjsSvg1042" width="288" height="288" xmlns="http://www.w3.org/2000/svg" version="1.1" xmlns:xlink="http://www.w3.org/1999/xlink" xmlns:svgjs="http://svgjs.com/svgjs"><defs id="SvgjsDefs1043"></defs><g id="SvgjsG1044"><svg xmlns="http://www.w3.org/2000/svg" viewBox="0 0 32 32" width="288" height="288"><path d="M23.706 15.312l-5.918-6.69a1.007 1.007 0 0 0-1.422 1.422l5.3 5.992-5.3 5.992a1.007 1.007 0 0 0 1.422 1.422l5.918-6.69c.2-.2.296-.462.292-.724a1.004 1.004 0 0 0-.292-.724zm-14.514 8.14c.392.392 1.03.392 1.422 0l5.918-6.69c.2-.2.296-.462.292-.724a.993.993 0 0 0-.292-.724l-5.916-6.692a1.007 1.007 0 0 0-1.422 1.422l5.3 5.992-5.3 5.992a1.007 1.007 0 0 0-.002 1.424z" fill="#ffffff" class="color000 svgShape"></path></svg></g></svg>