<svg id="SvgjsSvg1001" width="288" height="288" xmlns="http://www.w3.org/2000/svg" version="1.1" xmlns:xlink="http://www.w3.org/1999/xlink" xmlns:svgjs="http://svgjs.com/svgjs"><defs id="SvgjsDefs1002"></defs><g id="SvgjsG1008"><svg xmlns="http://www.w3.org/2000/svg" data-name="Layer 1" viewBox="0 0 24 24" width="288" height="288"><path d="m20.71 9.29-6-6a1 1 0 0 0-.32-.21A1.09 1.09 0 0 0 14 3H6a3 3 0 0 0-3 3v12a3 3 0 0 0 3 3h12a3 3 0 0 0 3-3v-8a1 1 0 0 0-.29-.71ZM9 5h4v2H9Zm6 14H9v-3a1 1 0 0 1 1-1h4a1 1 0 0 1 1 1Zm4-1a1 1 0 0 1-1 1h-1v-3a3 3 0 0 0-3-3h-4a3 3 0 0 0-3 3v3H6a1 1 0 0 1-1-1V6a1 1 0 0 1 1-1h1v3a1 1 0 0 0 1 1h6a1 1 0 0 0 1-1V6.41l4 4Z" fill="#ffffff" class="color000 svgShape"></path></svg></g></svg>